<svg width="22" height="22" viewBox="0 0 22 22" fill="none" xmlns="http://www.w3.org/2000/svg">
<path d="M15.1251 3.43745C15.125 2.63103 15.4085 1.85026 15.926 1.23172C16.4435 0.613192 17.162 0.196292 17.9559 0.0539627C18.7497 -0.0883661 19.5684 0.0529403 20.2685 0.453159C20.9687 0.853378 21.5059 1.48702 21.786 2.24323C22.0661 2.99945 22.0714 3.83007 21.8009 4.58978C21.5304 5.34948 21.0013 5.9899 20.3063 6.39898C19.6113 6.80806 18.7945 6.95975 17.9989 6.82752C17.2033 6.69529 16.4795 6.28755 15.9542 5.67564L6.71713 9.96504C6.92948 10.6379 6.92948 11.3599 6.71713 12.0327L15.9542 16.3221C16.5095 15.6764 17.2847 15.2598 18.1297 15.1531C18.9747 15.0463 19.8292 15.257 20.5276 15.7443C21.2261 16.2316 21.7188 16.9608 21.9102 17.7906C22.1016 18.6204 21.978 19.4917 21.5636 20.2356C21.1491 20.9796 20.4732 21.5432 19.6668 21.8172C18.8604 22.0912 17.981 22.0562 17.199 21.7188C16.417 21.3815 15.788 20.7659 15.4341 19.9913C15.0801 19.2168 15.0264 18.3384 15.2832 17.5265L6.04614 13.2371C5.58887 13.7699 4.97936 14.1499 4.29961 14.326C3.61986 14.5021 2.90248 14.4659 2.24397 14.2221C1.58545 13.9783 1.0174 13.5388 0.616227 12.9625C0.215052 12.3863 0 11.701 0 10.9989C0 10.2968 0.215052 9.61151 0.616227 9.03527C1.0174 8.45903 1.58545 8.01945 2.24397 7.77568C2.90248 7.53191 3.61986 7.49564 4.29961 7.67174C4.97936 7.84784 5.58887 8.22787 6.04614 8.7607L15.2832 4.47131C15.1781 4.13677 15.1248 3.78812 15.1251 3.43745Z" fill="#22AA00"/>
</svg>
