<svg width="21" height="20" viewBox="0 0 21 20" fill="none" xmlns="http://www.w3.org/2000/svg">
<path d="M13.9612 1.10971C13.9609 0.900595 13.8988 0.695811 13.7821 0.518889C13.6654 0.341967 13.4988 0.200087 13.3015 0.109553C13.1041 0.0190186 12.8841 -0.016495 12.6665 0.00709383C12.449 0.0306827 12.2429 0.112416 12.0718 0.242902L6.5734 4.44357H1.16343C0.854872 4.44357 0.558949 4.56065 0.340762 4.76905C0.122576 4.97746 0 5.26012 0 5.55485V14.4451C0 14.7399 0.122576 15.0225 0.340762 15.2309C0.558949 15.4394 0.854872 15.5564 1.16343 15.5564H6.5734L12.0718 19.7571C12.2429 19.8876 12.449 19.9693 12.6665 19.9929C12.8841 20.0165 13.1041 19.981 13.3015 19.8904C13.4988 19.7999 13.6654 19.658 13.7821 19.4811C13.8988 19.3042 13.9609 19.0994 13.9612 18.8903V1.10971ZM21 10C21.0018 11.3137 20.7318 12.6148 20.2055 13.8284C19.6792 15.0421 18.9069 16.1445 17.9332 17.0722L16.2881 15.5009C17.0454 14.7793 17.646 13.9218 18.0553 12.9778C18.4646 12.0338 18.6746 11.0218 18.6731 10C18.6745 8.97824 18.4645 7.96629 18.0552 7.02228C17.6459 6.07827 17.0453 5.2208 16.2881 4.49913L17.9332 2.92777C18.9069 3.85549 19.6792 4.95787 20.2055 6.17156C20.7318 7.38525 21.0018 8.68632 21 10Z" fill="#22AA00"/>
</svg>
